<svg width="60" height="60" viewBox="0 0 60 60" fill="none" xmlns="http://www.w3.org/2000/svg">
<rect width="60" height="60" rx="12.5" fill="#130F35"/>
<path opacity="0.4" fill-rule="evenodd" clip-rule="evenodd" d="M37.5677 29.9999L46.5723 20.3924C48.5643 18.2704 48.4588 14.9354 46.3368 12.9434C46.3288 12.9364 46.3218 12.9289 46.3138 12.9219C44.1708 10.9299 40.8117 11.0449 38.8112 13.1789L26.4273 26.3939C24.5243 28.4219 24.5243 31.5789 26.4273 33.6064L38.8112 46.8209C40.8112 48.9544 44.1713 49.0709 46.3138 47.0784C48.4478 45.0989 48.5733 41.7644 46.5938 39.6309C46.5863 39.6234 46.5793 39.6154 46.5723 39.6079L37.5677 29.9999Z" fill="#23E6A8"/>
<path fill-rule="evenodd" clip-rule="evenodd" d="M21.9323 29.9999L12.9273 20.3924C10.9358 18.2704 11.0413 14.9354 13.1633 12.9434C13.1708 12.9364 13.1783 12.9289 13.1863 12.9219C15.3293 10.9299 18.6883 11.0449 20.6888 13.1789L33.0723 26.3939C34.9753 28.4219 34.9753 31.5789 33.0723 33.6064L20.6888 46.8209C18.6888 48.9544 15.3288 49.0709 13.1863 47.0784C11.0523 45.0989 10.9268 41.7644 12.9063 39.6309C12.9133 39.6234 12.9208 39.6154 12.9273 39.6079L21.9323 29.9999Z" fill="#23E6A8"/>
</svg>
